<svg width="17" height="18" viewBox="0 0 17 18" fill="none" xmlns="http://www.w3.org/2000/svg">
<path d="M8.66406 17.2696C9.2793 17.2696 9.77734 16.7618 9.77734 16.1856V10.0723H15.7344C16.3301 10.0723 16.8379 9.57428 16.8379 8.95905C16.8379 8.35358 16.3301 7.84576 15.7344 7.84576H9.77734V1.73248C9.77734 1.14655 9.2793 0.648499 8.66406 0.648499C8.05859 0.648499 7.55078 1.14655 7.55078 1.73248V7.84576H1.59375C1.01758 7.84576 0.490234 8.35358 0.490234 8.95905C0.490234 9.57428 1.01758 10.0723 1.59375 10.0723H7.55078V16.1856C7.55078 16.7618 8.05859 17.2696 8.66406 17.2696Z" fill="#232323"/>
</svg>
